<?xml version="1.0" standalone="no"?>
<!DOCTYPE svg PUBLIC "-//W3C//DTD SVG 1.1//EN" "http://www.w3.org/Graphics/SVG/1.1/DTD/svg11.dtd" >
<svg xmlns="http://www.w3.org/2000/svg" xmlns:xlink="http://www.w3.org/1999/xlink" version="1.1">
<metadata></metadata>
<defs>
<font id="tofinosemibold" horiz-adv-x="1251" >
<font-face units-per-em="2048" ascent="1556" descent="-492" />
<missing-glyph horiz-adv-x="417" />
<glyph horiz-adv-x="0" />
<glyph horiz-adv-x="682" />
<glyph unicode=" "  horiz-adv-x="417" />
<glyph unicode="&#x09;" horiz-adv-x="417" />
<glyph unicode="&#xa0;" horiz-adv-x="417" />
<glyph unicode="!" horiz-adv-x="557" d="M135 0v279h287v-279h-287zM135 1468h287l-16 -1093h-252z" />
<glyph unicode="&#x22;" horiz-adv-x="823" d="M70 1546h303l-43 -497h-219zM451 1546h305l-43 -497h-219z" />
<glyph unicode="#" horiz-adv-x="1570" d="M145 367v208h234l63 324h-200v209h243l66 330h221l-65 -330h270l65 330h222l-66 -330h199v-209h-242l-63 -324h208v-208h-251l-72 -367h-221l71 367h-270l-72 -367h-221l72 367h-191zM600 575h270l64 324h-270z" />
<glyph unicode="$" horiz-adv-x="1177" d="M82 528h242q0 -238 276 -241q119 -2 182.5 40t63.5 126q0 46 -26 80t-69.5 55t-100.5 37.5t-119.5 32t-125 34t-119 47.5t-100 67.5t-68.5 100t-24 140.5q2 161 97.5 258.5t289.5 117.5v138h207v-138q206 -21 296.5 -127t90.5 -295h-244q0 46 -9.5 81.5t-35 68t-76.5 50 t-126 18.5q-128 1 -184 -44.5t-56 -121.5q0 -46 26 -79.5t69.5 -54t100.5 -37t119.5 -31.5t125 -33t119.5 -46.5t100.5 -67.5t69.5 -100.5t26 -140.5q0 -170 -104 -267t-308 -116v-164h-207v168q-399 47 -399 444z" />
<glyph unicode="%" horiz-adv-x="1775" d="M59 1100q0 185 84.5 281t276.5 96q193 0 275.5 -95.5t82.5 -281.5q0 -184 -82.5 -277.5t-275.5 -93.5q-192 0 -276.5 94t-84.5 277zM254 1100q0 -106 39 -157.5t127 -51.5q89 0 126.5 51t37.5 158q0 109 -38 162t-126 53q-87 0 -126.5 -53.5t-39.5 -161.5zM272 0 l942 1438h269l-942 -1438h-269zM971 330q0 186 84 282.5t276 96.5q193 0 276 -96.5t83 -282.5q0 -184 -83 -277.5t-276 -93.5q-192 0 -276 94t-84 277zM1165 330q0 -106 39 -157.5t127 -51.5q87 0 125.5 51t38.5 158q0 108 -38.5 161.5t-125.5 53.5t-126.5 -53.5 t-39.5 -161.5z" />
<glyph unicode="&#x26;" horiz-adv-x="1507" d="M123 424q0 74 18.5 139t46 109t66 81t71 58t68.5 37q-96 140 -96 289q0 182 115.5 277t343.5 95q450 0 450 -426h-264q0 107 -43 162t-143 55q-103 0 -149 -50.5t-46 -135.5q0 -41 13.5 -82.5t30 -72.5t56 -77.5t66 -74.5t87 -88.5t93.5 -95.5q26 -28 170 -177 q43 139 43 355h242q0 -326 -115 -527l205 -204v-80h-256q-43 41 -104 104q-177 -133 -455 -133q-255 0 -384.5 116.5t-129.5 346.5zM377 424q0 -126 73 -196t242 -70q158 0 256 82q-210 219 -289 305q-130 135 -137 143q-145 -91 -145 -264z" />
<glyph unicode="'" horiz-adv-x="440" d="M70 1546h303l-43 -497h-219z" />
<glyph unicode="(" horiz-adv-x="722" d="M154 573q0 169 22 332t53 275.5t62.5 201t53.5 131.5l22 43h262q-9 -16 -23 -47t-51 -131.5t-65 -208.5t-51 -271t-23 -325t23 -322.5t56 -272.5t66.5 -201.5t56.5 -133.5l23 -44h-264q-9 15 -24 43.5t-53.5 125.5t-68 202.5t-53.5 269.5t-24 333z" />
<glyph unicode=")" horiz-adv-x="722" d="M82 -401q9 16 24 46t53.5 129.5t68 205.5t53.5 268.5t24 324.5t-22 323t-53.5 275t-62.5 204.5t-53 135.5l-22 45h264q9 -16 23 -45t51 -127.5t65 -205t51 -271.5t23 -334t-23 -331t-55.5 -273.5t-65.5 -198.5t-56 -129l-23 -42h-264z" />
<glyph unicode="*" horiz-adv-x="909" d="M125 1188l55 176l193 -80l-8 203h178l-8 -203l192 80l57 -176l-204 -51l151 -162l-156 -119l-120 176l-123 -176l-154 119l152 162z" />
<glyph unicode="+" horiz-adv-x="1011" d="M72 555v207h323v332h219v-332h326v-207h-326v-330h-219v330h-323z" />
<glyph unicode="," horiz-adv-x="552" d="M55 -254q49 117 84 295q16 83 23.5 146t7.5 85v21h258q-2 -95 -53 -275q-24 -88 -54.5 -156t-48.5 -92l-18 -24h-199z" />
<glyph unicode="-" horiz-adv-x="831" d="M158 541v219h516v-219h-516z" />
<glyph unicode="." horiz-adv-x="546" d="M129 0v293h291v-293h-291z" />
<glyph unicode="/" horiz-adv-x="1028" d="M78 -82l635 1720h256l-635 -1720h-256z" />
<glyph unicode="0" horiz-adv-x="1333" d="M90 725q0 278 63 444t187.5 237t327.5 71q202 0 326.5 -71t187.5 -237t63 -444t-63 -443.5t-187 -236t-327 -70.5q-204 0 -328 70.5t-187 236t-63 443.5zM383 725q0 -147 17 -245t54.5 -153.5t88 -77.5t125.5 -22q99 0 158 41t91.5 151.5t32.5 305.5t-32.5 306 t-91.5 152.5t-158 41.5q-75 0 -125.5 -22.5t-87.5 -78.5t-54.5 -154t-17.5 -245z" />
<glyph unicode="1" horiz-adv-x="731" d="M16 1063v240l363 153h172v-1456h-283v1147z" />
<glyph unicode="2" horiz-adv-x="1185" d="M51 963q0 113 29 204t89.5 161t162.5 108.5t239 38.5q118 0 210 -25t150.5 -66t96.5 -99t53 -120t15 -133q0 -60 -12.5 -116.5t-31 -102.5t-51 -94t-62.5 -84t-76.5 -80.5t-80.5 -74.5t-87 -75q-13 -11 -19 -16q-36 -31 -172 -137l592 16v-262h-1043v244q185 120 373 274 q170 136 227 192q132 132 146 257q2 17 2 35q0 91 -57 150t-169 59q-111 0 -173 -73t-62 -181h-289z" />
<glyph unicode="3" horiz-adv-x="1210" d="M33 444h291q0 -96 61 -159.5t180 -63.5q250 0 250 258q0 125 -75.5 193.5t-225.5 68.5q-40 0 -82 -4t-64 -8l-22 -4v182l385 291l-639 -14v256h1006v-234l-359 -299q204 -37 293.5 -148t89.5 -302q0 -81 -16.5 -150t-56.5 -132t-101.5 -107.5t-157.5 -70.5t-219 -26 q-120 0 -214 26t-154 69.5t-99 105t-55 128.5t-16 144z" />
<glyph unicode="4" horiz-adv-x="1261" d="M27 264v232l600 950h430v-950h164v-232h-164v-264h-281v264h-749zM330 496h446v761z" />
<glyph unicode="5" d="M72 399h305q0 -72 66 -130t190 -58q128 0 191 66.5t63 185.5q0 127 -64 200.5t-178 73.5q-52 0 -97.5 -11t-72.5 -25t-49 -32.5t-29.5 -27.5t-11.5 -16l-274 4l120 807h871v-244l-623 6l-53 -321q107 73 305 73q121 0 211 -39.5t141.5 -109t76 -154t24.5 -184.5 q0 -82 -17 -152.5t-57 -134.5t-102 -108.5t-157.5 -70.5t-217.5 -26q-124 0 -223 25.5t-161 67t-103 98.5t-57.5 115t-16.5 122z" />
<glyph unicode="6" horiz-adv-x="1316" d="M92 645q0 235 30.5 391.5t100.5 256t178 142t269 42.5q116 0 208.5 -26.5t150 -68.5t95.5 -99t53 -114t15 -118h-289q0 35 -12 68t-37.5 62.5t-72 47.5t-107.5 18q-85 0 -138.5 -33.5t-89 -123t-49.5 -246.5q136 108 348 108q130 0 227 -38t154 -106.5t84 -154t27 -188.5 q0 -105 -28 -190t-91 -155t-176.5 -109t-271.5 -40q-161 0 -272.5 41t-179 127t-97 209t-29.5 297zM387 586q7 -201 75.5 -292t207.5 -91q134 0 198 71.5t64 200.5q0 132 -64.5 199t-189.5 67q-188 0 -291 -155z" />
<glyph unicode="7" horiz-adv-x="1048" d="M6 1186v254h1030v-258q-10 -12 -27.5 -34.5t-68 -95t-96 -148t-101.5 -188t-96.5 -221.5t-68 -241t-27.5 -254h-299q0 132 26 269t68 250.5t92 220.5t100.5 187t92.5 141t68 92l26 32z" />
<glyph unicode="8" horiz-adv-x="1302" d="M76 408q0 92 30 167t73 116t81.5 62.5t65.5 24.5q-19 3 -49.5 20.5t-66.5 50.5t-61.5 93t-25.5 133q0 72 16 131.5t54.5 110.5t98 86t150.5 54.5t209 19.5q147 0 252 -29.5t164.5 -85t86 -126t26.5 -161.5q0 -59 -17 -110t-42 -83.5t-54.5 -56.5t-52 -34.5t-37.5 -12.5 q20 -2 49 -15t64.5 -42.5t65.5 -70t50.5 -104.5t20.5 -138q0 -102 -29 -178.5t-94 -135.5t-178.5 -89t-274.5 -30q-160 0 -273 30t-178.5 88.5t-94.5 135.5t-29 179zM393 440q0 -118 62.5 -177.5t195.5 -59.5q260 0 260 237q0 110 -64.5 173t-195.5 63q-130 0 -194 -63 t-64 -173zM416 1049q0 -88 59.5 -139.5t175.5 -51.5q118 0 177 51.5t59 139.5q0 116 -57.5 171.5t-178.5 55.5q-120 0 -177.5 -55.5t-57.5 -171.5z" />
<glyph unicode="9" horiz-adv-x="1320" d="M84 983q0 82 18.5 153.5t61.5 135t107.5 108.5t161.5 71t218 26q161 1 272 -39.5t179.5 -128t98.5 -216t30 -313.5q0 -187 -19.5 -320.5t-60.5 -229.5t-111 -152t-165.5 -81.5t-229.5 -25.5q-105 0 -191.5 18t-145.5 50.5t-102 73.5t-67.5 90t-35.5 96.5t-11 97.5h291 q0 -35 14 -67t42.5 -61.5t82 -47.5t123.5 -18q64 0 107.5 15.5t79 56t57.5 113.5t33 185q-130 -110 -336 -110q-115 0 -202.5 25.5t-143.5 70.5t-91.5 111.5t-50 142.5t-14.5 170zM389 973q0 -147 64 -222t188 -75q191 0 291 162q-6 220 -73 313.5t-208 93.5 q-123 0 -192.5 -73.5t-69.5 -198.5z" />
<glyph unicode=":" horiz-adv-x="583" d="M147 49v303h291v-303h-291zM147 793v290h291v-290h-291z" />
<glyph unicode=";" horiz-adv-x="589" d="M47 -254q49 117 84 295q16 83 23.5 146t7.5 85v21h260q-4 -95 -55 -275q-24 -88 -54.5 -156t-48.5 -92l-18 -24h-199zM145 743v293h291v-293h-291z" />
<glyph unicode="&#x3c;" horiz-adv-x="1087" d="M100 545v256l846 270v-227l-657 -172l657 -170v-226z" />
<glyph unicode="=" horiz-adv-x="1107" d="M113 356v205h882v-205h-882zM113 700v205h882v-205h-882z" />
<glyph unicode="&#x3e;" horiz-adv-x="1087" d="M141 274v228l658 170l-658 172v225l846 -270v-256z" />
<glyph unicode="?" horiz-adv-x="1167" d="M78 995q0 118 24.5 208t78.5 159t147 105t223 36q134 0 232.5 -33t156.5 -93t85.5 -138t27.5 -176q0 -76 -18.5 -137t-48 -101.5t-65.5 -75t-73 -67t-68.5 -68t-52.5 -87t-25 -115.5l-4 -60h-286l2 60q0 76 18.5 136.5t48 100.5t65.5 74.5t72 65.5t65.5 64t48 80.5 t18.5 106.5q0 103 -48 159t-147 56q-201 0 -201 -260h-276zM412 0v260h286v-260h-286z" />
<glyph unicode="@" horiz-adv-x="1800" d="M86 578q0 147 27.5 273.5t89 236.5t153.5 187t228.5 121t306.5 44q177 0 316.5 -42t233.5 -117t156 -184t89.5 -237t27.5 -282q0 -289 -77.5 -415t-264.5 -126q-200 0 -264 172q-96 -107 -283 -107q-188 0 -273 120t-85 347q0 471 358 471q154 0 262 -104l15 92h184v-622 q0 -106 30 -164t89 -58q44 0 69 28t40.5 116.5t15.5 249.5q0 167 -34.5 292.5t-109.5 217t-199 138t-296 46.5q-165 0 -286 -49.5t-193.5 -143t-107 -218t-34.5 -283.5q0 -695 623 -695q111 0 217 17t172 49v-174q-156 -58 -391 -58q-173 0 -309.5 42t-229 117t-153 183.5 t-87 236.5t-26.5 282zM680 569q0 -137 47 -211.5t141 -74.5q155 0 211 106v359q-77 110 -211 110q-93 0 -140.5 -76t-47.5 -213z" />
<glyph unicode="A" horiz-adv-x="1423" d="M14 0l529 1468h338l528 -1468h-317l-93 287h-583l-90 -287h-312zM492 522h432l-215 676z" />
<glyph unicode="B" horiz-adv-x="1382" d="M143 -4v1477h529q138 0 239 -15.5t168 -44.5t107.5 -76.5t57 -106t16.5 -138.5q0 -246 -197 -332q128 -45 181.5 -134t53.5 -218q0 -78 -9 -132.5t-34.5 -104t-69 -80t-114 -53.5t-168.5 -32.5t-233 -9.5h-527zM434 217h242q195 0 265.5 45t70.5 168q0 116 -70.5 167.5 t-228.5 51.5h-279v-432zM434 866h279h6q139 0 197 44q59 44 59 147q0 106 -67 150t-232 44h-242v-385z" />
<glyph unicode="C" horiz-adv-x="1378" d="M86 733q0 407 150.5 591.5t478.5 184.5q294 0 439.5 -138.5t148.5 -448.5h-289q-7 179 -80 254t-219 75q-174 0 -252 -118t-78 -400q0 -281 77.5 -398.5t252.5 -117.5q144 0 217 75t82 255h286q-4 -312 -148 -449t-437 -137q-329 0 -479 182.5t-150 589.5z" />
<glyph unicode="D" horiz-adv-x="1429" d="M143 -4v1477h471q153 0 267 -18.5t195 -60.5t133 -99t81.5 -144.5t41 -185t11.5 -232.5q0 -100 -6 -178.5t-21.5 -151.5t-41.5 -127.5t-65.5 -102t-94 -79t-127.5 -54.5t-165.5 -33.5t-207.5 -10.5h-471zM438 248h230h8q206 0 285 102q81 104 81 383q0 142 -18.5 233.5 t-63.5 148t-114.5 79.5t-177.5 23h-230v-969z" />
<glyph unicode="E" horiz-adv-x="1193" d="M143 0v1468h987v-247h-696v-353h594v-231h-594v-389h709v-248h-1000z" />
<glyph unicode="F" horiz-adv-x="1130" d="M143 0v1468h967v-247h-676v-396h574v-237h-574v-588h-291z" />
<glyph unicode="G" horiz-adv-x="1388" d="M86 733q0 408 149 592t478 184q573 0 573 -542h-278q-3 137 -79.5 210.5t-215.5 73.5q-173 0 -250.5 -118.5t-77.5 -399.5q0 -289 79.5 -407.5t258.5 -118.5q129 0 212 42t83 81v207h-256v208h522v-559q0 -7 -19 -29.5t-64.5 -56.5t-107.5 -64.5t-163 -52.5t-217 -22h-7 q-324 0 -471 181q-149 183 -149 591z" />
<glyph unicode="H" horiz-adv-x="1443" d="M143 0v1468h291v-583h576v583h290v-1468h-290v621h-576v-621h-291z" />
<glyph unicode="I" horiz-adv-x="577" d="M143 0v1468h291v-1468h-291z" />
<glyph unicode="J" horiz-adv-x="823" d="M6 0v266h119q87 0 140 15t85.5 57t44 106.5t11.5 171.5v852h292v-852q0 -74 -2 -128.5t-8 -110.5t-16 -96t-26.5 -79t-39.5 -65.5t-55.5 -51t-73.5 -39t-93.5 -26t-116.5 -16t-142 -4.5h-119z" />
<glyph unicode="K" horiz-adv-x="1372" d="M143 0v1468h291v-776l578 776h340l-473 -600l481 -868h-322l-344 635l-260 -330v-305h-291z" />
<glyph unicode="L" horiz-adv-x="1048" d="M143 0v1468h291v-1204h594v-264h-885z" />
<glyph unicode="M" horiz-adv-x="1935" d="M143 0v1468h422l396 -1210l395 1210h436l-2 -1468h-283l27 1180l-428 -1180h-299l-412 1180l25 -1180h-277z" />
<glyph unicode="N" horiz-adv-x="1513" d="M143 0l4 1468h330l635 -1106l-16 1106h274v-1468h-334l-635 1124l15 -1124h-273z" />
<glyph unicode="O" horiz-adv-x="1439" d="M86 733q0 408 151 592t482 184q332 0 483.5 -184t151.5 -592q0 -407 -151 -589.5t-484 -182.5q-331 0 -482 182.5t-151 589.5zM385 733q0 -282 78.5 -399t255.5 -117q120 0 192.5 49.5t108 162.5t35.5 304q0 282 -78.5 400t-257.5 118q-177 0 -255.5 -118t-78.5 -400z " />
<glyph unicode="P" horiz-adv-x="1374" d="M143 0v1473h486q195 0 320.5 -23t209.5 -81.5t119 -155.5t35 -248q0 -121 -23 -206.5t-71.5 -145t-131.5 -94t-193 -49.5t-267 -15h-193v-455h-291zM434 700h236q71 0 118.5 5t93.5 20.5t72 44.5t42 78t16 119t-16 119t-42 77.5t-72 44t-93 20.5t-119 5h-236v-533z" />
<glyph unicode="Q" horiz-adv-x="1454" d="M86 733q0 408 151 592t482 184q332 0 483.5 -184t151.5 -592q0 -451 -189 -631l213 -192l-196 -168l-234 246q-115 -27 -229 -27q-331 0 -482 182.5t-151 589.5zM385 733q0 -282 78.5 -399t255.5 -117q120 0 192.5 49.5t108 162.5t35.5 304q0 282 -78.5 400t-257.5 118 q-177 0 -255.5 -118t-78.5 -400z" />
<glyph unicode="R" horiz-adv-x="1406" d="M143 0v1473h566q135 0 231 -14t171.5 -47t120 -89.5t67 -141t22.5 -202.5q0 -193 -60 -299t-192 -150l262 -530h-313l-221 492q-46 -3 -97 -3h-266v-489h-291zM434 735h244q61 0 102.5 3t83.5 11.5t68.5 25.5t47.5 44t30.5 67t9.5 95t-9.5 95t-30.5 67t-47.5 44 t-68.5 25.5t-83.5 11.5t-102.5 3h-244v-492z" />
<glyph unicode="S" horiz-adv-x="1331" d="M82 479h285q0 -273 311 -276h11q126 -1 196 45q73 48 73 145q0 51 -29.5 89t-80 61.5t-115.5 42.5t-136.5 36.5t-143.5 38.5t-136.5 54.5t-114 78t-78.5 114.5q-28 68 -28 155v6q2 209 141 325q138 115 415 115h5q156 -1 266.5 -33.5t176 -97t95.5 -152.5t30 -208h-285 q0 52 -11.5 92t-40 76.5t-86.5 56.5t-143 21h-6q-141 0 -203 -50q-64 -51 -63 -137q0 -51 29.5 -88.5t79.5 -60.5t115 -41.5t137 -36t144 -38.5t137 -54.5t115 -78t79.5 -115.5t29.5 -161q0 -219 -148 -331q-147 -111 -434 -111h-5q-584 3 -584 518z" />
<glyph unicode="T" horiz-adv-x="1179" d="M14 1206v262h1151v-262h-432l-2 -1206h-293l4 1206h-428z" />
<glyph unicode="U" horiz-adv-x="1406" d="M123 702v766h293v-743q0 -282 59.5 -390t226.5 -108q86 0 140.5 25t87 86.5t45 152t12.5 234.5v743h295v-766q0 -130 -8.5 -224.5t-31 -183t-63.5 -146.5t-105 -102.5t-156 -64.5t-216 -20q-93 0 -167.5 11.5t-132.5 36t-101.5 58t-74 83t-51 104t-32 128t-16 148.5 t-4.5 172z" />
<glyph unicode="V" horiz-adv-x="1341" d="M4 1468h328l342 -1224l344 1224h319l-479 -1468h-373z" />
<glyph unicode="W" horiz-adv-x="2115" d="M29 1468h336l260 -1212l262 1212h350l260 -1212l275 1212h313l-412 -1468h-364l-250 1176l-260 -1176h-367z" />
<glyph unicode="X" horiz-adv-x="1345" d="M18 0l465 723l-465 745h322l332 -561l329 561h326l-477 -733l453 -735h-322l-317 543l-322 -543h-324z" />
<glyph unicode="Y" horiz-adv-x="1302" d="M14 1468h328l309 -794l295 794h344l-493 -1030v-438h-289v434z" />
<glyph unicode="Z" horiz-adv-x="1179" d="M39 4v248l725 967h-692v245h1052v-245l-731 -967h740v-248h-1094z" />
<glyph unicode="[" horiz-adv-x="854" d="M205 -406v1962h588v-219h-334v-1523h334v-220h-588z" />
<glyph unicode="\" horiz-adv-x="1046" d="M78 1638h256l635 -1720h-256z" />
<glyph unicode="]" horiz-adv-x="854" d="M61 -186h336v1523h-336v219h588v-1962h-588v220z" />
<glyph unicode="^" horiz-adv-x="931" d="M113 942l266 588h184l268 -588h-202l-158 393l-158 -393h-200z" />
<glyph unicode="_" horiz-adv-x="1200" d="M166 0v209h868v-209h-868z" />
<glyph unicode="`" horiz-adv-x="868" d="M115 1610h291l176 -330h-254z" />
<glyph unicode="a" horiz-adv-x="1247" d="M84 317q0 103 33.5 176t96.5 114.5t143.5 60t185.5 18.5q158 0 284 -16q-1 77 -8.5 121.5t-30 79t-64.5 48t-112 13.5q-221 0 -221 -174h-256q0 33 3.5 63.5t15.5 70t31.5 72t55 65.5t82.5 55.5t118 36.5t157 14q105 0 185.5 -15t135.5 -38t92 -68t57.5 -85t30.5 -110.5 t12.5 -124t2.5 -143.5v-252l23 -299h-263l-24 100q-146 -131 -358 -131q-408 0 -408 348zM377 336q0 -158 192 -158q87 0 154.5 35.5t103.5 83.5v197q-82 10 -196 10q-128 0 -191 -39t-63 -129z" />
<glyph unicode="b" horiz-adv-x="1271" d="M117 0l20 311v1235h287v-532q126 121 328 121q224 0 329 -148.5t105 -435.5q0 -285 -106.5 -429.5t-334.5 -144.5q-246 0 -356 152l-27 -129h-245zM424 330q86 -121 244 -121q119 0 175 84.5t56 259.5q0 176 -56.5 263t-176.5 87q-147 0 -242 -121v-452z" />
<glyph unicode="c" horiz-adv-x="1202" d="M86 555q0 143 27.5 249t89 183.5t165 116.5t250.5 39q137 0 234.5 -31t156.5 -92.5t87 -144t32 -193.5h-280q-9 238 -230 238q-130 0 -184.5 -86.5t-54.5 -278.5q0 -194 54 -278t185 -84q219 0 228 206h282q-5 -102 -33.5 -178.5t-87 -134.5t-156 -87.5t-233.5 -29.5 q-147 0 -250.5 38.5t-165 115.5t-89 182.5t-27.5 249.5z" />
<glyph unicode="d" horiz-adv-x="1265" d="M86 551q0 287 105.5 435.5t330.5 148.5q196 0 326 -121v532h287v-1235l20 -311h-244l-28 129q-110 -152 -357 -152q-227 0 -333.5 145t-106.5 429zM375 553q0 -174 55.5 -259t173.5 -85q148 0 244 119v454q-95 121 -242 121q-119 0 -175 -87.5t-56 -262.5z" />
<glyph unicode="e" horiz-adv-x="1228" d="M86 555q0 143 28.5 249t91.5 183.5t167 116.5t250 39q286 0 405 -152.5t119 -503.5h-766q7 -164 63.5 -234.5t178.5 -70.5q64 0 112 16t73 42t37 53.5t13 56.5h285q-3 -55 -17 -104t-50.5 -101.5t-92.5 -90t-148.5 -61.5t-211.5 -24q-146 0 -250 38.5t-167 115 t-91.5 182.5t-28.5 250zM383 678h469q-20 147 -74 205.5t-157 58.5q-111 0 -168 -62t-70 -202z" />
<glyph unicode="f" horiz-adv-x="751" d="M37 856v211h151v98q0 64 10 119t36.5 108t68.5 90.5t110.5 60t157.5 22.5l160 -2v-236h-69q-105 0 -147 -49t-42 -156v-55h256v-211h-256v-856h-285v856h-151z" />
<glyph unicode="g" horiz-adv-x="1263" d="M86 551q0 287 105.5 435.5t330.5 148.5q73 0 136.5 -17t107.5 -44.5t70 -49.5t45 -45l28 133h244l-18 -305v-811q0 -149 -19 -220q-46 -177 -240 -237q-107 -33 -262 -33q-84 0 -154 13.5t-118 36.5t-86 52.5t-60 62.5t-37.5 66t-21.5 62.5t-8.5 52.5t-2.5 36l1 14h293 q0 -165 149 -189q25 -4 52 -4q46 0 81.5 8t59.5 19.5t40.5 34t25.5 42.5t13.5 54.5t5.5 61t1 69.5v92q-109 -113 -322 -113q-227 0 -333.5 145t-106.5 429zM375 553q0 -174 55.5 -259t173.5 -85q148 0 244 119v454q-95 121 -242 121q-119 0 -175 -87.5t-56 -262.5z" />
<glyph unicode="h" horiz-adv-x="1275" d="M135 0v1546h287v-567q52 60 143.5 104.5t222.5 44.5q199 0 285 -114q84 -111 84 -365v-12v-637h-287v637q0 120 -43 177.5t-149 57.5q-49 0 -93 -15.5t-75 -41.5t-52 -50t-36 -50v-715h-287z" />
<glyph unicode="i" horiz-adv-x="552" d="M133 0v1112h287v-1112h-287zM133 1286v283h287v-283h-287z" />
<glyph unicode="j" horiz-adv-x="567" d="M-90 -168q51 0 88 7t62.5 15.5t42 32t25.5 41t13.5 59t5 68t0.5 85.5v3v969h287v-969q0 -69 -1 -108t-6 -97t-14.5 -90.5t-27.5 -76.5t-44.5 -68t-65.5 -51.5t-90.5 -41.5t-120.5 -23t-154 -9v254zM147 1286v283h287v-283h-287z" />
<glyph unicode="k" horiz-adv-x="1140" d="M135 0v1546h277v-944l383 510h311l-350 -426l389 -686h-322l-243 471l-168 -203v-268h-277z" />
<glyph unicode="l" horiz-adv-x="557" d="M135 0l2 1546h285v-1546h-287z" />
<glyph unicode="m" horiz-adv-x="1929" d="M117 1112h245l29 -145q22 28 50 52.5t71.5 51t105.5 42t134 15.5q118 0 194 -43t117 -135q19 27 47 53.5t74 57t114 49t146 18.5q193 0 280 -115q86 -114 86 -370v-6v-637h-274v637q0 120 -41.5 177.5t-144.5 57.5q-83 0 -143 -41.5t-97 -97.5q2 -31 2 -96v-637h-262v637 q0 119 -41.5 177t-142.5 58q-146 0 -242 -145v-727h-287v815z" />
<glyph unicode="n" horiz-adv-x="1273" d="M117 1112h245l33 -162q20 27 48.5 53.5t75.5 57t116.5 49t150.5 18.5q200 0 284.5 -117t84.5 -393v-618h-287v621q0 131 -42.5 191t-149.5 60q-157 0 -252 -151v-721h-287v815z" />
<glyph unicode="o" d="M86 555q0 144 28 250t90 183.5t167 116t254 38.5h9q114 -1 203 -25q92 -26 154 -73.5t101 -121t56 -163.5t17 -205q0 -145 -27.5 -250.5t-90 -182.5t-167.5 -115t-255 -38q-149 0 -254 38t-167 115t-90 182.5t-28 250.5zM379 555q0 -194 55 -277t191 -83q137 0 192 83 t55 277q0 193 -55 278t-192 85q-135 0 -190.5 -85t-55.5 -278z" />
<glyph unicode="p" horiz-adv-x="1271" d="M117 1112h245l27 -133q134 156 361 156q225 0 330.5 -148.5t105.5 -435.5q0 -284 -107 -429t-334 -145q-208 0 -321 113v-582h-287v1299zM424 328q89 -119 244 -119q118 0 173.5 85t55.5 259q0 175 -56 262.5t-175 87.5q-147 0 -242 -121v-454z" />
<glyph unicode="q" horiz-adv-x="1265" d="M86 551q0 287 105.5 435.5t330.5 148.5q72 0 135.5 -16.5t107 -43.5t69.5 -49t45 -45l32 131h244l-20 -283v-1321h-287v582q-109 -113 -322 -113q-227 0 -333.5 145t-106.5 429zM375 553q0 -174 55.5 -259t173.5 -85q148 0 244 119v454q-95 121 -242 121 q-119 0 -175 -87.5t-56 -262.5z" />
<glyph unicode="r" horiz-adv-x="829" d="M117 1112h248l34 -197q11 28 28 54.5t50.5 59t75 56.5t105.5 40t139 16v-258q-80 0 -145.5 -23t-103.5 -54t-67 -73t-40 -70t-17 -55v-608h-287v786z" />
<glyph unicode="s" horiz-adv-x="1155" d="M63 377h277q0 -96 61.5 -146.5t171.5 -50.5h7q114 0 168 32q56 34 57 103q0 39 -24 66t-65.5 42.5t-95.5 26.5t-113.5 21t-119.5 23.5t-114 37.5t-96 57.5t-67 89t-26 128.5v5q0 159 120 245q121 86 368 86h6q249 -1 367 -97t118 -284h-272q0 87 -48 132t-159 46h-9 q-208 0 -208 -135q0 -45 40 -72.5t104 -41.5t141 -26t154.5 -33.5t141.5 -55.5t104 -101t40 -162q0 -169 -121 -257q-120 -87 -387 -87h-6q-253 1 -384 107t-131 301z" />
<glyph unicode="t" horiz-adv-x="751" d="M29 899v213h143v309l287 45v-354h252v-213h-252v-401q0 -139 36.5 -196.5t141.5 -57.5h80v-248h-103q-76 0 -136.5 8.5t-105 27t-77.5 41.5t-55 58.5t-35.5 70t-20.5 84.5t-9.5 94.5t-2.5 106.5v412h-143z" />
<glyph unicode="u" horiz-adv-x="1261" d="M109 475l2 637h284v-637q0 -118 43.5 -176.5t149.5 -58.5q50 0 93.5 16.5t74.5 44t50.5 52.5t35.5 53v706h286v-805l23 -307h-246l-37 174q-18 -28 -46 -55.5t-75 -60.5t-117 -53.5t-151 -20.5q-200 0 -285 113t-85 378z" />
<glyph unicode="v" horiz-adv-x="1163" d="M14 1112h320l250 -897l247 897h316l-408 -1112h-313z" />
<glyph unicode="w" horiz-adv-x="1765" d="M10 1112h303l203 -883l205 883h319l217 -887l199 887h301l-327 -1112h-343l-208 854l-199 -854h-334z" />
<glyph unicode="x" horiz-adv-x="1181" d="M20 1112h338l244 -383l240 383h321l-395 -575l379 -537h-336l-229 360l-228 -360h-323l387 553z" />
<glyph unicode="y" horiz-adv-x="1169" d="M14 1112h316l258 -895l270 895h295l-512 -1583h-260l141 471h-114z" />
<glyph unicode="z" horiz-adv-x="991" d="M45 4v229l559 648h-538v227h872v-225l-559 -650h559v-229h-893z" />
<glyph unicode="{" horiz-adv-x="917" d="M143 477v197q111 0 145 23.5t34 88.5v390q0 87 7 142.5t29.5 102t56.5 70.5t97.5 41t142.5 22t201 5v-209q-86 0 -133.5 -9.5t-78 -40.5t-39.5 -79.5t-9 -135.5l-2 -311q1 -41 -12.5 -76.5t-31 -56.5t-40 -37.5t-34 -22t-19.5 -8.5q6 -1 18 -6.5t34 -20.5t40.5 -36 t32.5 -56.5t14 -78.5v-322q0 -83 9 -129.5t39 -76t78 -39t134 -9.5v-209q-120 0 -200.5 6t-143 24.5t-97.5 44t-57 73.5t-29 104.5t-7 143.5v376q0 44 -12.5 67t-51.5 35.5t-115 12.5z" />
<glyph unicode="|" horiz-adv-x="473" d="M135 -387v2066h203v-2066h-203z" />
<glyph unicode="}" horiz-adv-x="917" d="M61 -201q57 0 95 4t68.5 15.5t48 29t29 49t15.5 70t5 96.5l2 312q1 52 19 93t45 63t42.5 31t26.5 13q-7 2 -17 6.5t-32.5 21t-40 37t-31.5 57t-14 79.5v322q0 82 -9.5 128t-40 75.5t-78.5 39t-133 9.5v209q90 0 156 -3.5t122.5 -12.5t94.5 -22.5t68 -37t47 -51t28 -69.5 t15 -88.5t4 -111.5v-377q0 -44 12 -67t51 -35t115 -12v-195q-111 0 -144.5 -23.5t-33.5 -88.5v-390q0 -65 -3.5 -111t-15 -87.5t-28.5 -68t-47.5 -49t-67.5 -34.5t-94 -20.5t-122.5 -11.5t-156.5 -3v209z" />
<glyph unicode="~" horiz-adv-x="1148" d="M80 475q0 336 293 336q63 0 119 -17.5t91 -39t84.5 -39t100.5 -17.5q70 0 105.5 39.5t35.5 73.5h158q0 -73 -13 -129.5t-44.5 -105t-90.5 -75t-143 -26.5q-63 0 -119 17.5t-91 39t-84.5 39t-100.5 17.5q-70 0 -105.5 -39.5t-35.5 -73.5h-160z" />
<glyph unicode="&#xa1;" horiz-adv-x="557" d="M135 -356l19 1093h252l16 -1093h-287zM135 834v278h287v-278h-287z" />
<glyph unicode="&#xa2;" horiz-adv-x="1202" d="M86 707q0 263 99 408.5t327 172.5v166h203v-164q214 -21 309.5 -135t103.5 -319h-280q-4 122 -62 178.5t-168 56.5q-130 0 -184.5 -86t-54.5 -278q0 -194 54 -277.5t185 -83.5q219 0 228 207h282q-5 -94 -28.5 -165.5t-71.5 -127.5t-126 -89.5t-187 -43.5v-168h-203v168 q-228 27 -327 171.5t-99 408.5z" />
<glyph unicode="&#xa3;" horiz-adv-x="1161" d="M29 498v184h174q-9 25 -45 104t-51 137.5t-15 131.5q0 177 125 286t379 109q139 0 237.5 -32t156.5 -94t84 -146t26 -197h-283q0 104 -57 164.5t-154 60.5q-98 0 -153.5 -57t-55.5 -154q0 -50 16.5 -98.5t47 -110.5t45.5 -104h313v-184h-278q0 -5 1 -15.5t1 -15.5 q0 -172 -115 -256l653 12v-231h-1030v213q8 2 25 8t49 23.5t58.5 41.5t46.5 65t20 89q0 46 -2 66h-219z" />
<glyph unicode="&#xa4;" horiz-adv-x="1400" d="M86 1114l162 160l127 -125q124 73 327 76q197 0 318 -70l129 129l162 -162l-131 -133q65 -127 65 -327q0 -196 -61 -318l131 -133l-160 -162l-129 129q-128 -72 -324 -72q-201 0 -325 70l-127 -127l-162 162l133 133q-61 122 -61 318q0 194 59 317zM446 662 q0 -312 256 -312t256 312q0 319 -256 319t-256 -319z" />
<glyph unicode="&#xa5;" horiz-adv-x="1257" d="M14 1452h324l291 -602l276 602h340l-420 -700h170v-166h-227v-101h227v-166h-227v-319h-279v319h-229v166h229v101h-229v166h172z" />
<glyph unicode="&#xa6;" horiz-adv-x="473" d="M135 -369v871h203v-871h-203zM135 809v870h203v-870h-203z" />
<glyph unicode="&#xa7;" horiz-adv-x="1122" d="M63 344h256q0 -205 230 -205q229 0 229 146q0 44 -24 75.5t-65 49.5t-93.5 31t-111 24.5t-117 25t-111 37.5t-93.5 58t-65 90.5t-24 130.5q0 152 121 240q-115 81 -115 241q0 326 477 326q256 0 365.5 -89t109.5 -270h-256q0 89 -46.5 134t-168.5 45q-209 0 -209 -144 q0 -42 24 -71t65 -44.5t94 -26.5t112 -21t117.5 -22.5t111.5 -36.5t94 -58t65 -92t24 -134q0 -150 -115 -241q109 -81 109 -242q0 -168 -118.5 -255t-381.5 -87q-265 0 -377.5 93t-112.5 292zM346 807q0 -29 10.5 -51t32.5 -37.5t46.5 -26.5t62.5 -20t69 -14.5t78 -13.5 t78 -15q61 54 61 137q0 26 -9 48t-22 37.5t-37.5 29t-46 22t-57 17.5t-60.5 14t-67 13.5t-67 13.5q-72 -60 -72 -154z" />
<glyph unicode="&#xa8;" horiz-adv-x="950" d="M127 1278v291h266v-291h-266zM543 1278v291h264v-291h-264z" />
<glyph unicode="&#xa9;" horiz-adv-x="1685" d="M86 713q0 135 24.5 250t80.5 216.5t142 173t215.5 113t293.5 41.5q166 0 296.5 -41.5t216 -112.5t141.5 -173.5t79.5 -217t23.5 -249.5t-23.5 -249t-79.5 -214.5t-141.5 -170.5t-216 -110.5t-296.5 -40.5q-164 0 -293.5 40.5t-215.5 110.5t-142 170.5t-80.5 215 t-24.5 248.5zM248 713q0 -111 17.5 -203.5t60.5 -175.5t110 -140t170 -90.5t236 -33.5q596 0 596 643q0 653 -596 653q-133 0 -236 -34t-170 -92.5t-110 -143t-60.5 -178.5t-17.5 -205zM465 717q0 246 92 355.5t291 109.5q176 0 264.5 -84.5t89.5 -272.5h-190 q-3 104 -44.5 148.5t-119.5 44.5q-98 0 -142 -68t-44 -233t44 -233t142 -68q76 0 118 44.5t46 149.5h190q-1 -190 -90 -274t-264 -84q-198 0 -290.5 110t-92.5 355z" />
<glyph unicode="&#xaa;" horiz-adv-x="860" d="M57 963q0 254 322 254q109 0 192 -11q-1 51 -6.5 81.5t-20.5 54.5t-43 34t-73 10q-149 0 -149 -118h-185q0 34 5.5 64t25.5 68t53 65t95 46t145 19q57 0 103 -6.5t81 -16.5t62 -29t45 -37.5t31 -48.5t20 -55.5t10.5 -65t4.5 -70.5t1 -79v-174l17 -207h-189l-16 62 q-101 -86 -244 -86q-287 0 -287 246zM266 973q0 -105 131 -105q108 0 174 74v135q-70 8 -131 8q-89 0 -131.5 -25.5t-42.5 -86.5z" />
<glyph unicode="&#xab;" horiz-adv-x="1341" d="M162 522v51l239 353h312l-285 -381l285 -361h-312zM631 522v51l239 353h312l-285 -381l285 -361h-312z" />
<glyph unicode="&#xad;" horiz-adv-x="831" d="M158 541v219h516v-219h-516z" />
<glyph unicode="&#xae;" horiz-adv-x="1685" d="M86 713q0 135 24.5 250t80.5 216.5t142 173t215.5 113t293.5 41.5q166 0 296.5 -41.5t216 -112.5t141.5 -173.5t79.5 -217t23.5 -249.5t-23.5 -249t-79.5 -214.5t-141.5 -170.5t-216 -110.5t-296.5 -40.5q-164 0 -293.5 40.5t-215.5 110.5t-142 170.5t-80.5 215 t-24.5 248.5zM248 713q0 -111 17.5 -203.5t60.5 -175.5t110 -140t170 -90.5t236 -33.5q596 0 596 643q0 653 -596 653q-133 0 -236 -34t-170 -92.5t-110 -143t-60.5 -178.5t-17.5 -205zM510 281v874h354q189 0 268.5 -63.5t79.5 -233.5q0 -116 -35 -178t-114 -88l143 -311 h-198l-119 286h-191v-286h-188zM698 719h148q91 0 132.5 26.5t41.5 114.5t-41.5 114.5t-132.5 26.5h-148v-282z" />
<glyph unicode="&#xaf;" horiz-adv-x="964" d="M123 1327v186h602v-186h-602z" />
<glyph unicode="&#xb0;" horiz-adv-x="759" d="M123 1229q0 266 258 266q256 0 256 -266q0 -262 -256 -262q-258 0 -258 262zM283 1229q0 -125 98 -125q96 0 96 125q0 129 -96 129q-98 0 -98 -129z" />
<glyph unicode="&#xb1;" horiz-adv-x="1093" d="M121 176v205h852v-205h-852zM121 684v205h315v227h219v-227h318v-205h-318v-229h-219v229h-315z" />
<glyph unicode="&#xb2;" horiz-adv-x="903" d="M45 1346q0 87 21.5 156.5t67.5 123t124.5 82.5t185.5 29q92 0 163 -18.5t115.5 -50t73.5 -75.5t40.5 -91t11.5 -101q0 -63 -19.5 -124t-37 -97.5t-72 -96t-72 -76t-91.5 -80.5q-10 -9 -15 -14q-19 -16 -64.5 -53t-62.5 -51l428 14v-207h-789v191q136 100 275 213 q137 108 182 154q98 101 98 206q0 65 -39.5 106.5t-119.5 41.5q-81 0 -125.5 -52t-44.5 -130h-234z" />
<glyph unicode="&#xb3;" horiz-adv-x="956" d="M47 952h236q0 -67 43.5 -113t128.5 -46q90 0 133 46t43 128q0 194 -219 194q-30 0 -60.5 -3t-45.5 -6l-15 -3v147l272 205l-471 -14v207h768v-185l-260 -215q151 -31 216 -116.5t65 -229.5q0 -74 -21 -135.5t-67.5 -113.5t-131.5 -81.5t-202 -29.5q-92 0 -163.5 20 t-117.5 53.5t-76 80.5t-42.5 98.5t-12.5 111.5z" />
<glyph unicode="&#xb4;" horiz-adv-x="868" d="M92 1280l176 330h291l-215 -330h-252z" />
<glyph unicode="&#xb6;" horiz-adv-x="1386" d="M63 1059q0 148 30.5 241.5t105 149.5t183.5 78.5t284 25.5v2h585v-1556h-200v1337h-183v-1337h-202v561q-174 4 -283.5 27t-184 80t-105 150.5t-30.5 240.5zM334 1061q0 -84 17 -136.5t59 -83t101 -42t155 -13.5v549q-76 -2 -127 -9.5t-93 -25t-65 -48.5t-35 -77.5 t-12 -113.5z" />
<glyph unicode="&#xb7;" horiz-adv-x="581" d="M147 469v293h291v-293h-291z" />
<glyph unicode="&#xb8;" horiz-adv-x="897" d="M123 -350q0 -2 9.5 -5.5t36 -7.5t60.5 -4q71 0 104.5 20.5t33.5 67.5q0 93 -174 93h-9l95 190h241l-65 -127q83 -7 136.5 -50t53.5 -132q0 -108 -75 -158.5t-261 -50.5q-55 0 -101.5 5t-65.5 10l-19 5v144z" />
<glyph unicode="&#xb9;" horiz-adv-x="563" d="M14 1372v215l279 117h139v-1094h-229v844z" />
<glyph unicode="&#xba;" horiz-adv-x="858" d="M53 1124q0 205 86 308.5t289 103.5q204 0 290.5 -103.5t86.5 -308.5q0 -204 -86 -305.5t-291 -101.5q-203 0 -289 101.5t-86 305.5zM262 1124q0 -132 37.5 -188.5t128.5 -56.5q93 0 130.5 56.5t37.5 188.5q0 133 -38 190.5t-130 57.5q-91 0 -128.5 -58t-37.5 -190z" />
<glyph unicode="&#xbb;" horiz-adv-x="1341" d="M160 184l282 361l-282 381h313l240 -353v-51l-240 -338h-313zM629 184l282 361l-282 381h311l240 -353v-51l-240 -338h-311z" />
<glyph unicode="&#xbc;" horiz-adv-x="1984" d="M14 1225v215l279 116h139v-1093h-229v844zM250 -82l981 1653h235l-979 -1653h-237zM1057 193v188l438 709h338v-709h123v-188h-123v-193h-227v193h-549zM1294 381h312v547z" />
<glyph unicode="&#xbd;" horiz-adv-x="2043" d="M14 1225v215l279 116h139v-1093h-229v844zM250 -82l981 1653h235l-979 -1653h-237zM1186 735q0 87 21.5 156.5t67.5 123t124.5 82.5t185.5 29q114 0 195.5 -27.5t125.5 -76.5t63.5 -105.5t19.5 -125.5q0 -78 -21.5 -144.5t-72 -129t-86.5 -98t-111 -101.5 q-11 -10 -17 -15q-19 -16 -64.5 -53t-62.5 -51l428 14v-207h-788v191q135 100 274 213q137 108 181 153q100 102 100 207q0 65 -40 106.5t-120 41.5q-81 0 -125.5 -52.5t-44.5 -130.5h-233z" />
<glyph unicode="&#xbe;" horiz-adv-x="2334" d="M47 805h236q0 -67 43.5 -113.5t128.5 -46.5q90 0 133 46t43 128q0 195 -219 195q-30 0 -60.5 -3t-45.5 -7l-15 -3v148l272 205l-471 -15v207h768v-184l-260 -215q151 -31 216 -116.5t65 -229.5q0 -74 -21 -135.5t-67.5 -114t-131.5 -82t-202 -29.5q-92 0 -163.5 20 t-117.5 53.5t-76 81t-42.5 99t-12.5 111.5zM600 -82l981 1653h236l-979 -1653h-238zM1407 193v188l438 709h338v-709h123v-188h-123v-193h-227v193h-549zM1645 381h311v547z" />
<glyph unicode="&#xbf;" horiz-adv-x="1144" d="M115 49q0 76 18.5 137t48 101.5t65.5 75t73 67t68.5 68t53 87t25.5 115.5l2 60h287l-2 -60q0 -75 -18.5 -135.5t-48 -101t-65 -74.5t-71 -65t-65 -64.5t-48 -81t-18.5 -106.5q0 -103 47.5 -159t144.5 -56q201 0 201 260h277q0 -118 -24.5 -208t-78.5 -159t-147.5 -105 t-223.5 -36q-108 0 -193 22t-142 60.5t-95 94t-54.5 120.5t-16.5 143zM469 852v260h287v-260h-287z" />
<glyph unicode="&#xc0;" horiz-adv-x="1423" d="M14 0l529 1468h338l528 -1468h-317l-93 287h-583l-90 -287h-312zM342 1858h338l174 -275h-299zM492 522h432l-215 676z" />
<glyph unicode="&#xc1;" horiz-adv-x="1423" d="M14 0l529 1468h338l528 -1468h-317l-93 287h-583l-90 -287h-312zM492 522h432l-215 676zM555 1579l176 276h338l-215 -276h-299z" />
<glyph unicode="&#xc2;" horiz-adv-x="1423" d="M14 0l529 1468h338l528 -1468h-317l-93 287h-583l-90 -287h-312zM336 1579l233 285h285l244 -285h-248l-137 137l-138 -137h-239zM492 522h432l-215 676z" />
<glyph unicode="&#xc3;" horiz-adv-x="1423" d="M14 0l529 1468h338l528 -1468h-317l-93 287h-583l-90 -287h-312zM342 1575q0 66 9.5 116t32.5 93.5t67.5 66.5t109.5 23q54 0 95 -14.5t62 -32.5t50.5 -32.5t62.5 -14.5q50 0 71.5 31t21.5 61h153q0 -65 -9.5 -114.5t-32.5 -93t-67.5 -66.5t-109.5 -23q-54 0 -95 14.5 t-62 32.5t-50.5 32.5t-62.5 14.5q-50 0 -71 -31t-21 -63h-154zM492 522h432l-215 676z" />
<glyph unicode="&#xc4;" horiz-adv-x="1423" d="M14 0l529 1468h338l528 -1468h-317l-93 287h-583l-90 -287h-312zM350 1579v291h287v-291h-287zM492 522h432l-215 676zM784 1579v291h289v-291h-289z" />
<glyph unicode="&#xc5;" horiz-adv-x="1423" d="M14 0l529 1468h338l528 -1468h-317l-93 287h-583l-90 -287h-312zM461 1786q0 111 68 172t184 61t183 -61t67 -172q0 -109 -67.5 -170.5t-182.5 -61.5t-183.5 61.5t-68.5 170.5zM492 522h432l-215 676zM639 1786q0 -33 20.5 -53.5t53.5 -20.5q32 0 51.5 20t19.5 54 q0 35 -19.5 55.5t-51.5 20.5q-33 0 -53.5 -20.5t-20.5 -55.5z" />
<glyph unicode="&#xc6;" horiz-adv-x="1980" d="M14 0l734 1468h1169v-247h-696v-353h594v-231h-594v-389h708v-248h-1001v315h-443l-149 -315h-322zM592 543h336v708z" />
<glyph unicode="&#xc7;" horiz-adv-x="1378" d="M86 733q0 407 150.5 591.5t478.5 184.5q294 0 439.5 -138.5t148.5 -448.5h-289q-7 179 -80 254t-219 75q-174 0 -252 -118t-78 -400q0 -281 77.5 -398.5t252.5 -117.5q144 0 217 75t82 255h286q-4 -275 -116 -413t-336 -165l-53 -102q83 -7 136.5 -50t53.5 -132 q0 -108 -75 -158.5t-261 -50.5q-55 0 -101.5 5t-65.5 10l-19 5v144q0 -2 9.5 -5.5t36 -7.5t60.5 -4q71 0 104.5 20.5t33.5 67.5q0 92 -175 92h-8l80 164q-269 28 -393.5 211t-124.5 555z" />
<glyph unicode="&#xc8;" horiz-adv-x="1193" d="M143 0v1468h987v-247h-696v-353h594v-231h-594v-389h709v-248h-1000zM264 1858h338l174 -275h-299z" />
<glyph unicode="&#xc9;" horiz-adv-x="1193" d="M143 0v1468h987v-247h-696v-353h594v-231h-594v-389h709v-248h-1000zM477 1579l176 276h338l-215 -276h-299z" />
<glyph unicode="&#xca;" horiz-adv-x="1193" d="M143 0v1468h987v-247h-696v-353h594v-231h-594v-389h709v-248h-1000zM258 1579l234 285h284l244 -285h-248l-137 137l-137 -137h-240z" />
<glyph unicode="&#xcb;" horiz-adv-x="1193" d="M143 0v1468h987v-247h-696v-353h594v-231h-594v-389h709v-248h-1000zM272 1579v291h287v-291h-287zM707 1579v291h288v-291h-288z" />
<glyph unicode="&#xcc;" horiz-adv-x="577" d="M-80 1858h338l174 -275h-299zM143 0v1468h291v-1468h-291z" />
<glyph unicode="&#xcd;" horiz-adv-x="577" d="M133 1579l176 276h338l-215 -276h-299zM143 0v1468h291v-1468h-291z" />
<glyph unicode="&#xce;" horiz-adv-x="577" d="M-86 1579l233 285h285l244 -285h-248l-137 137l-137 -137h-240zM143 0v1468h291v-1468h-291z" />
<glyph unicode="&#xcf;" horiz-adv-x="577" d="M-72 1579v291h287v-291h-287zM143 0v1468h291v-1468h-291zM362 1579v291h289v-291h-289z" />
<glyph unicode="&#xd0;" horiz-adv-x="1429" d="M8 653v164h135v656h471q153 0 267 -18.5t195 -60.5t133 -99t81.5 -144.5t41 -185t11.5 -232.5q0 -100 -6 -178.5t-21.5 -151.5t-41.5 -127.5t-65.5 -102t-94 -79t-127.5 -54.5t-165.5 -33.5t-207.5 -10.5h-471v657h-135zM438 248h230q212 -2 293 102.5t81 382.5 q0 142 -18.5 233.5t-63.5 148t-114.5 79.5t-177.5 23h-230v-400h228v-164h-228v-405z" />
<glyph unicode="&#xd1;" horiz-adv-x="1513" d="M143 0l4 1468h330l635 -1106l-16 1106h274v-1468h-334l-635 1124l15 -1124h-273zM387 1575q0 66 9.5 116t32.5 93.5t67.5 66.5t109.5 23q54 0 95.5 -14.5t62 -32.5t50.5 -32.5t63 -14.5q27 0 46.5 10t28.5 26t13 30t4 26h153q0 -65 -9.5 -114.5t-32.5 -93t-67.5 -66.5 t-109.5 -23q-54 0 -95 14.5t-62 32.5t-50.5 32.5t-62.5 14.5q-50 0 -71 -31t-21 -63h-154z" />
<glyph unicode="&#xd2;" horiz-adv-x="1439" d="M86 733q0 408 151 592t482 184q332 0 483.5 -184t151.5 -592q0 -407 -151 -589.5t-484 -182.5q-331 0 -482 182.5t-151 589.5zM350 1870h338l174 -275h-299zM385 733q0 -282 78.5 -399t255.5 -117q120 0 192.5 49.5t108 162.5t35.5 304q0 282 -78.5 400t-257.5 118 q-177 0 -255.5 -118t-78.5 -400z" />
<glyph unicode="&#xd3;" horiz-adv-x="1439" d="M86 733q0 408 151 592t482 184q332 0 483.5 -184t151.5 -592q0 -407 -151 -589.5t-484 -182.5q-331 0 -482 182.5t-151 589.5zM385 733q0 -282 78.5 -399t255.5 -117q120 0 192.5 49.5t108 162.5t35.5 304q0 282 -78.5 400t-257.5 118q-177 0 -255.5 -118t-78.5 -400z M563 1591l176 277h338l-215 -277h-299z" />
<glyph unicode="&#xd4;" horiz-adv-x="1439" d="M86 733q0 408 151 592t482 184q332 0 483.5 -184t151.5 -592q0 -407 -151 -589.5t-484 -182.5q-331 0 -482 182.5t-151 589.5zM344 1591l234 285h284l244 -285h-248l-137 138l-137 -138h-240zM385 733q0 -282 78.5 -399t255.5 -117q120 0 192.5 49.5t108 162.5t35.5 304 q0 282 -78.5 400t-257.5 118q-177 0 -255.5 -118t-78.5 -400z" />
<glyph unicode="&#xd5;" horiz-adv-x="1439" d="M86 733q0 408 151 592t482 184q332 0 483.5 -184t151.5 -592q0 -407 -151 -589.5t-484 -182.5q-331 0 -482 182.5t-151 589.5zM350 1587q0 66 9.5 116t32.5 93.5t67.5 66.5t109.5 23q54 0 95.5 -14.5t62 -32.5t50.5 -32.5t63 -14.5q27 0 46.5 10t28.5 26t13 30t4 26h153 q0 -65 -9.5 -114.5t-32.5 -93t-67.5 -66.5t-109.5 -23q-54 0 -95 14.5t-62 32.5t-50.5 32.5t-62.5 14.5q-50 0 -71 -31t-21 -63h-154zM385 733q0 -282 78.5 -399t255.5 -117q120 0 192.5 49.5t108 162.5t35.5 304q0 282 -78.5 400t-257.5 118q-177 0 -255.5 -118t-78.5 -400 z" />
<glyph unicode="&#xd6;" horiz-adv-x="1439" d="M86 733q0 408 151 592t482 184q332 0 483.5 -184t151.5 -592q0 -407 -151 -589.5t-484 -182.5q-331 0 -482 182.5t-151 589.5zM358 1591v291h287v-291h-287zM385 733q0 -282 78.5 -399t255.5 -117q120 0 192.5 49.5t108 162.5t35.5 304q0 282 -78.5 400t-257.5 118 q-177 0 -255.5 -118t-78.5 -400zM793 1591v291h288v-291h-288z" />
<glyph unicode="&#xd7;" horiz-adv-x="1021" d="M111 352l266 277l-266 278l137 131l262 -272l262 272l139 -131l-268 -276l270 -279l-139 -133l-264 273l-262 -271z" />
<glyph unicode="&#xd8;" horiz-adv-x="1439" d="M86 733q0 408 151 592t482 184q221 0 358 -77l43 63h211l-123 -178q146 -189 146 -584q0 -407 -151 -589.5t-484 -182.5q-228 0 -373 86l-45 -67h-213l129 188q-131 182 -131 565zM385 733q0 -167 27 -278l506 741q-72 55 -199 55q-177 0 -255.5 -118t-78.5 -400z M506 283q74 -66 213 -66q120 0 192.5 49.5t108 162.5t35.5 304q0 187 -35 303z" />
<glyph unicode="&#xd9;" horiz-adv-x="1406" d="M123 702v766h293v-743q0 -282 59.5 -390t226.5 -108q86 0 140.5 25t87 86.5t45 152t12.5 234.5v743h295v-766q0 -130 -8.5 -224.5t-31 -183t-63.5 -146.5t-105 -102.5t-156 -64.5t-216 -20q-93 0 -167.5 11.5t-132.5 36t-101.5 58t-74 83t-51 104t-32 128t-16 148.5 t-4.5 172zM336 1858h338l174 -275h-299z" />
<glyph unicode="&#xda;" horiz-adv-x="1406" d="M123 702v766h293v-743q0 -282 59.5 -390t226.5 -108q86 0 140.5 25t87 86.5t45 152t12.5 234.5v743h295v-766q0 -130 -8.5 -224.5t-31 -183t-63.5 -146.5t-105 -102.5t-156 -64.5t-216 -20q-93 0 -167.5 11.5t-132.5 36t-101.5 58t-74 83t-51 104t-32 128t-16 148.5 t-4.5 172zM549 1579l176 276h338l-215 -276h-299z" />
<glyph unicode="&#xdb;" horiz-adv-x="1406" d="M123 702v766h293v-743q0 -282 59.5 -390t226.5 -108q86 0 140.5 25t87 86.5t45 152t12.5 234.5v743h295v-766q0 -130 -8.5 -224.5t-31 -183t-63.5 -146.5t-105 -102.5t-156 -64.5t-216 -20q-93 0 -167.5 11.5t-132.5 36t-101.5 58t-74 83t-51 104t-32 128t-16 148.5 t-4.5 172zM330 1579l233 285h285l244 -285h-248l-137 137l-138 -137h-239z" />
<glyph unicode="&#xdc;" horiz-adv-x="1406" d="M123 702v766h293v-743q0 -282 59.5 -390t226.5 -108q86 0 140.5 25t87 86.5t45 152t12.5 234.5v743h295v-766q0 -130 -8.5 -224.5t-31 -183t-63.5 -146.5t-105 -102.5t-156 -64.5t-216 -20q-93 0 -167.5 11.5t-132.5 36t-101.5 58t-74 83t-51 104t-32 128t-16 148.5 t-4.5 172zM344 1579v291h287v-291h-287zM778 1579v291h289v-291h-289z" />
<glyph unicode="&#xdd;" horiz-adv-x="1302" d="M14 1468h328l309 -794l295 794h344l-493 -1030v-438h-289v434zM496 1579l176 276h338l-215 -276h-299z" />
<glyph unicode="&#xde;" horiz-adv-x="1359" d="M143 0v1468h295v-223h264q109 0 191 -9.5t150.5 -33t115 -61t78.5 -94.5t46.5 -133t14.5 -177q0 -121 -22 -206t-65 -142.5t-117.5 -90.5t-169 -46.5t-230.5 -13.5h-258v-238h-293zM436 479h252q80 0 130.5 8.5t95.5 34.5t66 79.5t21 137.5t-21 137.5t-66 79.5 t-95.5 34.5t-130.5 8.5h-252v-520z" />
<glyph unicode="&#xdf;" horiz-adv-x="1257" d="M135 0v1073q0 74 6.5 130.5t25 115t53.5 100t89 75t135.5 51t188.5 18.5q143 0 243.5 -29t157 -85t81 -128.5t24.5 -169.5q0 -85 -25 -153t-57 -105t-73 -62.5t-63 -33t-36 -9.5q188 -23 256 -182q33 -77 33 -182q0 -99 -17.5 -166t-59 -119t-116.5 -81t-184.5 -43.5 t-268.5 -14.5v219q199 0 279 48t80 179q0 60 -18 102.5t-45.5 66t-75.5 37.5t-92 18.5t-111 5.5v219q135 0 218 51t83 162q0 117 -47.5 175t-165.5 58q-116 -1 -163.5 -59.5t-47.5 -173.5v-1108h-287z" />
<glyph unicode="&#xe0;" horiz-adv-x="1247" d="M84 317q0 103 33.5 176t96.5 114.5t143.5 60t185.5 18.5q158 0 284 -16q-1 77 -8.5 121.5t-30 79t-64.5 48t-112 13.5q-221 0 -221 -174h-256q0 33 3.5 63.5t15.5 70t31.5 72t55 65.5t82.5 55.5t118 36.5t157 14q105 0 185.5 -15t135.5 -38t92 -68t57.5 -85t30.5 -110.5 t12.5 -124t2.5 -143.5v-252l23 -299h-263l-24 100q-146 -131 -358 -131q-408 0 -408 348zM281 1610h290l177 -330h-254zM377 336q0 -158 192 -158q87 0 154.5 35.5t103.5 83.5v197q-82 10 -196 10q-128 0 -191 -39t-63 -129z" />
<glyph unicode="&#xe1;" horiz-adv-x="1247" d="M84 317q0 103 33.5 176t96.5 114.5t143.5 60t185.5 18.5q158 0 284 -16q-1 77 -8.5 121.5t-30 79t-64.5 48t-112 13.5q-221 0 -221 -174h-256q0 33 3.5 63.5t15.5 70t31.5 72t55 65.5t82.5 55.5t118 36.5t157 14q105 0 185.5 -15t135.5 -38t92 -68t57.5 -85t30.5 -110.5 t12.5 -124t2.5 -143.5v-252l23 -299h-263l-24 100q-146 -131 -358 -131q-408 0 -408 348zM377 336q0 -158 192 -158q87 0 154.5 35.5t103.5 83.5v197q-82 10 -196 10q-128 0 -191 -39t-63 -129zM496 1280l176 330h291l-215 -330h-252z" />
<glyph unicode="&#xe2;" horiz-adv-x="1247" d="M84 317q0 103 33.5 176t96.5 114.5t143.5 60t185.5 18.5q158 0 284 -16q-1 77 -8.5 121.5t-30 79t-64.5 48t-112 13.5q-221 0 -221 -174h-256q0 33 3.5 63.5t15.5 70t31.5 72t55 65.5t82.5 55.5t118 36.5t157 14q105 0 185.5 -15t135.5 -38t92 -68t57.5 -85t30.5 -110.5 t12.5 -124t2.5 -143.5v-252l23 -299h-263l-24 100q-146 -131 -358 -131q-408 0 -408 348zM240 1278l247 324h261l253 -324h-243l-140 154l-139 -154h-239zM377 336q0 -158 192 -158q87 0 154.5 35.5t103.5 83.5v197q-82 10 -196 10q-128 0 -191 -39t-63 -129z" />
<glyph unicode="&#xe3;" horiz-adv-x="1247" d="M84 317q0 103 33.5 176t96.5 114.5t143.5 60t185.5 18.5q158 0 284 -16q-1 77 -8.5 121.5t-30 79t-64.5 48t-112 13.5q-221 0 -221 -174h-256q0 33 3.5 63.5t15.5 70t31.5 72t55 65.5t82.5 55.5t118 36.5t157 14q105 0 185.5 -15t135.5 -38t92 -68t57.5 -85t30.5 -110.5 t12.5 -124t2.5 -143.5v-252l23 -299h-263l-24 100q-146 -131 -358 -131q-408 0 -408 348zM254 1284q0 66 9.5 116t32 93.5t67 66.5t108.5 23q53 0 95.5 -15.5t65 -33.5t52.5 -33.5t61 -15.5q34 0 56.5 19t29.5 39t7 38h151q0 -66 -9.5 -116t-32 -93.5t-67 -66.5t-108.5 -23 q-53 0 -95.5 15.5t-65 33.5t-52.5 33.5t-61 15.5q-34 0 -56 -19t-29 -39t-7 -38h-152zM377 336q0 -158 192 -158q87 0 154.5 35.5t103.5 83.5v197q-82 10 -196 10q-128 0 -191 -39t-63 -129z" />
<glyph unicode="&#xe4;" horiz-adv-x="1247" d="M84 317q0 103 33.5 176t96.5 114.5t143.5 60t185.5 18.5q158 0 284 -16q-1 77 -8.5 121.5t-30 79t-64.5 48t-112 13.5q-221 0 -221 -174h-256q0 33 3.5 63.5t15.5 70t31.5 72t55 65.5t82.5 55.5t118 36.5t157 14q105 0 185.5 -15t135.5 -38t92 -68t57.5 -85t30.5 -110.5 t12.5 -124t2.5 -143.5v-252l23 -299h-263l-24 100q-146 -131 -358 -131q-408 0 -408 348zM283 1278v291h266v-291h-266zM377 336q0 -158 192 -158q87 0 154.5 35.5t103.5 83.5v197q-82 10 -196 10q-128 0 -191 -39t-63 -129zM698 1278v291h265v-291h-265z" />
<glyph unicode="&#xe5;" horiz-adv-x="1247" d="M84 317q0 103 33.5 176t96.5 114.5t143.5 60t185.5 18.5q158 0 284 -16q-1 77 -8.5 121.5t-30 79t-64.5 48t-112 13.5q-221 0 -221 -174h-256q0 33 3.5 63.5t15.5 70t31.5 72t55 65.5t82.5 55.5t118 36.5t157 14q105 0 185.5 -15t135.5 -38t92 -68t57.5 -85t30.5 -110.5 t12.5 -124t2.5 -143.5v-252l23 -299h-263l-24 100q-146 -131 -358 -131q-408 0 -408 348zM377 336q0 -158 192 -158q87 0 154.5 35.5t103.5 83.5v197q-82 10 -196 10q-128 0 -191 -39t-63 -129zM383 1475q0 106 65 164.5t177 58.5t176.5 -58.5t64.5 -164.5t-64.5 -165 t-176.5 -59t-177 59t-65 165zM551 1475q0 -35 20.5 -55.5t53.5 -20.5t53 20.5t20 55.5q0 33 -20 53t-53 20t-53.5 -20t-20.5 -53z" />
<glyph unicode="&#xe6;" horiz-adv-x="1941" d="M84 317q0 103 33 174.5t96.5 111.5t143.5 57.5t186 17.5h262q2 36 14 98q-10 82 -60.5 119t-146.5 37q-221 0 -221 -174h-256q0 33 3.5 63.5t15.5 70t31.5 72t55 65.5t82.5 55.5t118 36.5t157 14q235 0 348 -117q131 125 389 125q286 0 405.5 -152.5t119.5 -503.5h-766 q7 -164 63 -234.5t178 -70.5q64 0 112 16t73.5 42t37.5 53.5t13 56.5h284q-3 -55 -17 -104t-50.5 -101.5t-92.5 -90t-148.5 -61.5t-211.5 -24q-311 0 -438 181q-149 -177 -405 -177q-205 0 -306.5 85t-101.5 259zM377 336q0 -158 192 -158q93 0 160 39t96 90q-20 81 -26 189 h-168q-130 0 -192 -35.5t-62 -124.5zM1096 678h469q-20 147 -74.5 205.5t-157.5 58.5q-111 0 -167.5 -62t-69.5 -202z" />
<glyph unicode="&#xe7;" horiz-adv-x="1202" d="M86 555q0 143 27.5 249t89 183.5t165 116.5t250.5 39q137 0 234.5 -31t156.5 -92.5t87 -144t32 -193.5h-280q-9 238 -230 238q-130 0 -184.5 -86.5t-54.5 -278.5q0 -194 54 -278t185 -84q219 0 228 206h282q-8 -181 -96.5 -287.5t-281.5 -131.5l-54 -105q83 -7 137 -50 t54 -132q0 -108 -75 -158.5t-261 -50.5q-55 0 -101.5 5t-65.5 10l-19 5v144q0 -2 9.5 -5.5t36 -7.5t60.5 -4q71 0 104 20.5t33 67.5q0 93 -174 93h-8l80 163q-225 27 -322.5 172t-97.5 408z" />
<glyph unicode="&#xe8;" horiz-adv-x="1228" d="M86 555q0 143 28.5 249t91.5 183.5t167 116.5t250 39q286 0 405 -152.5t119 -503.5h-766q7 -164 63.5 -234.5t178.5 -70.5q64 0 112 16t73 42t37 53.5t13 56.5h285q-3 -55 -17 -104t-50.5 -101.5t-92.5 -90t-148.5 -61.5t-211.5 -24q-146 0 -250 38.5t-167 115 t-91.5 182.5t-28.5 250zM287 1610h291l176 -330h-254zM383 678h469q-20 147 -74 205.5t-157 58.5q-111 0 -168 -62t-70 -202z" />
<glyph unicode="&#xe9;" horiz-adv-x="1228" d="M86 555q0 143 28.5 249t91.5 183.5t167 116.5t250 39q286 0 405 -152.5t119 -503.5h-766q7 -164 63.5 -234.5t178.5 -70.5q64 0 112 16t73 42t37 53.5t13 56.5h285q-3 -55 -17 -104t-50.5 -101.5t-92.5 -90t-148.5 -61.5t-211.5 -24q-146 0 -250 38.5t-167 115 t-91.5 182.5t-28.5 250zM383 678h469q-20 147 -74 205.5t-157 58.5q-111 0 -168 -62t-70 -202zM502 1280l176 330h291l-215 -330h-252z" />
<glyph unicode="&#xea;" horiz-adv-x="1228" d="M86 555q0 143 28.5 249t91.5 183.5t167 116.5t250 39q286 0 405 -152.5t119 -503.5h-766q7 -164 63.5 -234.5t178.5 -70.5q64 0 112 16t73 42t37 53.5t13 56.5h285q-3 -55 -17 -104t-50.5 -101.5t-92.5 -90t-148.5 -61.5t-211.5 -24q-146 0 -250 38.5t-167 115 t-91.5 182.5t-28.5 250zM246 1278l248 324h260l254 -324h-244l-139 154l-140 -154h-239zM383 678h469q-20 147 -74 205.5t-157 58.5q-111 0 -168 -62t-70 -202z" />
<glyph unicode="&#xeb;" horiz-adv-x="1228" d="M86 555q0 143 28.5 249t91.5 183.5t167 116.5t250 39q286 0 405 -152.5t119 -503.5h-766q7 -164 63.5 -234.5t178.5 -70.5q64 0 112 16t73 42t37 53.5t13 56.5h285q-3 -55 -17 -104t-50.5 -101.5t-92.5 -90t-148.5 -61.5t-211.5 -24q-146 0 -250 38.5t-167 115 t-91.5 182.5t-28.5 250zM289 1278v291h266v-291h-266zM383 678h469q-20 147 -74 205.5t-157 58.5q-111 0 -168 -62t-70 -202zM705 1278v291h264v-291h-264z" />
<glyph unicode="&#xec;" horiz-adv-x="552" d="M-66 1610h291l176 -330h-254zM133 0v1112h287v-1112h-287z" />
<glyph unicode="&#xed;" horiz-adv-x="552" d="M133 0v1112h287v-1112h-287zM160 1280l176 330h268l-213 -330h-231z" />
<glyph unicode="&#xee;" horiz-adv-x="552" d="M-106 1278l247 324h260l254 -324h-243l-140 154l-139 -154h-239zM133 0v1112h287v-1112h-287z" />
<glyph unicode="&#xef;" horiz-adv-x="552" d="M-63 1278v291h266v-291h-266zM133 0v1112h287v-1112h-287zM352 1278v291h264v-291h-264z" />
<glyph unicode="&#xf0;" d="M86 555q0 136 27.5 237t89 176t167.5 113.5t255 38.5q46 0 96 -16q-49 86 -90 143l-166 -82l-84 119l162 80q-44 55 -91 103t-72 69l-24 20h336q31 -28 78 -81l156 75l88 -112l-152 -76q56 -74 103.5 -154t94.5 -183.5t75 -225t30 -244.5q0 -145 -27.5 -250.5 t-89.5 -182.5t-167 -115t-256 -38q-150 0 -255 38t-167 115t-89.5 182.5t-27.5 250.5zM379 555q0 -194 55 -277t191 -83q134 0 189 79.5t58 264.5q0 115 -24 223q-24 61 -79.5 109.5t-143.5 48.5q-136 0 -191 -85.5t-55 -279.5z" />
<glyph unicode="&#xf1;" horiz-adv-x="1273" d="M117 1112h245l33 -162q20 27 48.5 53.5t75.5 57t116.5 49t150.5 18.5q200 0 284.5 -117t84.5 -393v-618h-287v621q0 131 -42.5 191t-149.5 60q-157 0 -252 -151v-721h-287v815zM279 1284q0 66 9.5 116t32 93.5t67 66.5t108.5 23q53 0 95.5 -15.5t65 -33.5t52.5 -33.5 t61 -15.5q34 0 56 19t29 39t7 38h152q0 -66 -9.5 -116t-32 -93.5t-67 -66.5t-108.5 -23q-53 0 -96 15.5t-65 33.5t-52.5 33.5t-61.5 15.5q-34 0 -56 -19t-29 -39t-7 -38h-151z" />
<glyph unicode="&#xf2;" d="M86 555q0 144 28 250t90 183.5t167 116t254 38.5q120 1 212 -24.5t154 -73.5t101 -121.5t56 -163.5t17 -205q0 -145 -27.5 -250.5t-90 -182.5t-167.5 -115t-255 -38q-149 0 -254 38t-167 115t-90 182.5t-28 250.5zM283 1602h290l177 -330h-254zM379 555q0 -194 55 -277 t191 -83q137 0 192 83t55 277q0 193 -55 278t-192 85q-135 0 -190.5 -85t-55.5 -278z" />
<glyph unicode="&#xf3;" d="M86 555q0 144 28 250t90 183.5t167 116t254 38.5q120 1 212 -24.5t154 -73.5t101 -121.5t56 -163.5t17 -205q0 -145 -27.5 -250.5t-90 -182.5t-167.5 -115t-255 -38q-149 0 -254 38t-167 115t-90 182.5t-28 250.5zM379 555q0 -194 55 -277t191 -83q137 0 192 83t55 277 q0 193 -55 278t-192 85q-135 0 -190.5 -85t-55.5 -278zM498 1272l176 330h291l-215 -330h-252z" />
<glyph unicode="&#xf4;" d="M86 555q0 144 28 250t90 183.5t167 116t254 38.5q120 1 212 -24.5t154 -73.5t101 -121.5t56 -163.5t17 -205q0 -145 -27.5 -250.5t-90 -182.5t-167.5 -115t-255 -38q-149 0 -254 38t-167 115t-90 182.5t-28 250.5zM242 1270l247 323h261l254 -323h-244l-139 153 l-140 -153h-239zM379 555q0 -194 55 -277t191 -83q137 0 192 83t55 277q0 193 -55 278t-192 85q-135 0 -190.5 -85t-55.5 -278z" />
<glyph unicode="&#xf5;" d="M86 555q0 144 28 250t90 183.5t167 116t254 38.5q120 1 212 -24.5t154 -73.5t101 -121.5t56 -163.5t17 -205q0 -145 -27.5 -250.5t-90 -182.5t-167.5 -115t-255 -38q-149 0 -254 38t-167 115t-90 182.5t-28 250.5zM256 1276q0 66 9.5 116t32 93.5t67 66.5t108.5 23 q53 0 96 -15.5t65 -33.5t52.5 -33.5t61.5 -15.5q34 0 56 19t29 39t7 38h151q0 -66 -9.5 -116t-32 -93.5t-67 -66.5t-108.5 -23q-53 0 -95.5 15.5t-65 33.5t-52.5 33.5t-61 15.5q-34 0 -56 -19t-29 -39t-7 -38h-152zM379 555q0 -194 55 -277t191 -83q137 0 192 83t55 277 q0 193 -55 278t-192 85q-135 0 -190.5 -85t-55.5 -278z" />
<glyph unicode="&#xf6;" d="M86 555q0 144 28 250t90 183.5t167 116t254 38.5q120 1 212 -24.5t154 -73.5t101 -121.5t56 -163.5t17 -205q0 -145 -27.5 -250.5t-90 -182.5t-167.5 -115t-255 -38q-149 0 -254 38t-167 115t-90 182.5t-28 250.5zM285 1270v291h266v-291h-266zM379 555q0 -194 55 -277 t191 -83q137 0 192 83t55 277q0 193 -55 278t-192 85q-135 0 -190.5 -85t-55.5 -278zM700 1270v291h265v-291h-265z" />
<glyph unicode="&#xf7;" horiz-adv-x="1034" d="M72 555v207h891v-207h-891zM385 180v273h264v-273h-264zM385 864v273h264v-273h-264z" />
<glyph unicode="&#xf8;" d="M86 555q0 144 28 250t90 183.5t167 116t254 38.5q184 0 297 -58l39 52h196l-110 -148q118 -140 118 -434q0 -145 -27.5 -250.5t-90 -182.5t-167.5 -115t-255 -38q-172 0 -297 56l-37 -50h-197l109 146q-117 139 -117 434zM379 555q0 -109 14 -178l377 504q-55 37 -145 37 q-135 0 -190.5 -85t-55.5 -278zM481 229q48 -34 144 -34q137 0 192 83t55 277q0 113 -16 178z" />
<glyph unicode="&#xf9;" horiz-adv-x="1261" d="M109 475l2 637h284v-637q0 -118 43.5 -176.5t149.5 -58.5q50 0 93.5 16.5t74.5 44t50.5 52.5t35.5 53v706h286v-805l23 -307h-246l-37 174q-18 -28 -46 -55.5t-75 -60.5t-117 -53.5t-151 -20.5q-200 0 -285 113t-85 378zM285 1610h290l177 -330h-254z" />
<glyph unicode="&#xfa;" horiz-adv-x="1261" d="M109 475l2 637h284v-637q0 -118 43.5 -176.5t149.5 -58.5q50 0 93.5 16.5t74.5 44t50.5 52.5t35.5 53v706h286v-805l23 -307h-246l-37 174q-18 -28 -46 -55.5t-75 -60.5t-117 -53.5t-151 -20.5q-200 0 -285 113t-85 378zM500 1280l176 330h291l-215 -330h-252z" />
<glyph unicode="&#xfb;" horiz-adv-x="1261" d="M109 475l2 637h284v-637q0 -118 43.5 -176.5t149.5 -58.5q50 0 93.5 16.5t74.5 44t50.5 52.5t35.5 53v706h286v-805l23 -307h-246l-37 174q-18 -28 -46 -55.5t-75 -60.5t-117 -53.5t-151 -20.5q-200 0 -285 113t-85 378zM244 1278l248 324h260l254 -324h-244l-139 154 l-140 -154h-239z" />
<glyph unicode="&#xfc;" horiz-adv-x="1261" d="M109 475l2 637h284v-637q0 -118 43.5 -176.5t149.5 -58.5q50 0 93.5 16.5t74.5 44t50.5 52.5t35.5 53v706h286v-805l23 -307h-246l-37 174q-18 -28 -46 -55.5t-75 -60.5t-117 -53.5t-151 -20.5q-200 0 -285 113t-85 378zM287 1278v291h266v-291h-266zM702 1278v291h265 v-291h-265z" />
<glyph unicode="&#xfd;" horiz-adv-x="1169" d="M14 1112h316l258 -895l270 895h295l-512 -1583h-260l141 471h-114zM465 1280l176 330h291l-215 -330h-252z" />
<glyph unicode="&#xfe;" horiz-adv-x="1273" d="M135 -492v2038h287v-536q130 125 330 125q225 0 330.5 -148.5t105.5 -435.5q0 -284 -106.5 -429t-333.5 -145q-213 0 -326 117v-586h-287zM422 336q88 -127 248 -127q118 0 173.5 85t55.5 259q0 175 -56 262.5t-175 87.5q-148 0 -246 -125v-442z" />
<glyph unicode="&#xff;" horiz-adv-x="1169" d="M14 1112h316l258 -895l270 895h295l-512 -1583h-260l141 471h-114zM252 1278v291h266v-291h-266zM668 1278v291h264v-291h-264z" />
<glyph unicode="&#x152;" horiz-adv-x="1970" d="M86 733q0 393 148.5 564t482.5 171h1190v-247h-697v-353h594v-231h-594v-389h709v-248h-1202q-335 0 -483 170t-148 563zM385 733q0 -270 79 -386t257 -116h199v1006h-199q-178 0 -257 -117t-79 -387z" />
<glyph unicode="&#x153;" horiz-adv-x="2017" d="M86 555q0 144 28 250t90 183.5t167 116t254 38.5q290 0 395 -160q54 80 148 120t243 40q285 0 404.5 -153t119.5 -503h-766q7 -164 62.5 -234.5t177.5 -70.5q64 0 112 16t73.5 42t38 53.5t14.5 56.5h284q-3 -55 -17.5 -104t-51.5 -101.5t-92.5 -90t-147.5 -61.5t-211 -24 q-283 0 -391 158q-105 -158 -395 -158q-149 0 -254 38t-167 115t-90 182.5t-28 250.5zM379 555q0 -197 54.5 -278.5t191.5 -81.5q138 0 192.5 81.5t54.5 278.5t-55 280t-192 83q-136 0 -191 -83.5t-55 -279.5zM1171 678h469q-20 147 -74 205.5t-157 58.5q-113 0 -169 -61.5 t-69 -202.5z" />
<glyph unicode="&#x178;" horiz-adv-x="1302" d="M14 1468h328l309 -794l295 794h344l-493 -1030v-438h-289v434zM291 1579v291h287v-291h-287zM725 1579v291h289v-291h-289z" />
<glyph unicode="&#x2c6;" horiz-adv-x="991" d="M150 1278l247 324h260l254 -324h-243l-140 154l-139 -154h-239z" />
<glyph unicode="&#x2dc;" horiz-adv-x="997" d="M141 1284q0 66 9.5 116t32 93.5t67 66.5t108.5 23q53 0 96 -15.5t65 -33.5t52.5 -33.5t61.5 -15.5q34 0 56 19t29 39t7 38h152q0 -66 -9.5 -116t-32.5 -93.5t-67.5 -66.5t-108.5 -23q-53 0 -95.5 15.5t-65 33.5t-52.5 33.5t-61 15.5q-34 0 -56 -19t-29 -39t-7 -38h-152z " />
<glyph unicode="&#x2000;" horiz-adv-x="1009" />
<glyph unicode="&#x2001;" horiz-adv-x="2019" />
<glyph unicode="&#x2002;" horiz-adv-x="1009" />
<glyph unicode="&#x2003;" horiz-adv-x="2019" />
<glyph unicode="&#x2004;" horiz-adv-x="673" />
<glyph unicode="&#x2005;" horiz-adv-x="504" />
<glyph unicode="&#x2006;" horiz-adv-x="336" />
<glyph unicode="&#x2007;" horiz-adv-x="336" />
<glyph unicode="&#x2008;" horiz-adv-x="252" />
<glyph unicode="&#x2009;" horiz-adv-x="403" />
<glyph unicode="&#x200a;" horiz-adv-x="112" />
<glyph unicode="&#x2010;" horiz-adv-x="831" d="M158 541v219h516v-219h-516z" />
<glyph unicode="&#x2011;" horiz-adv-x="831" d="M158 541v219h516v-219h-516z" />
<glyph unicode="&#x2012;" horiz-adv-x="831" d="M158 541v219h516v-219h-516z" />
<glyph unicode="&#x2013;" horiz-adv-x="1245" d="M137 551v209h973v-209h-973z" />
<glyph unicode="&#x2014;" horiz-adv-x="1953" d="M166 551v209h1622v-209h-1622z" />
<glyph unicode="&#x2018;" horiz-adv-x="509" d="M102 1010q5 94 54 274q24 88 55 156t49 92l19 24h196q-47 -116 -82 -294q-16 -83 -23.5 -146t-7.5 -84v-22h-260z" />
<glyph unicode="&#x2019;" horiz-adv-x="509" d="M61 1010q47 119 82 295q16 83 23.5 145.5t7.5 83.5v22h260q-4 -94 -53 -274q-24 -88 -55 -156t-50 -92l-18 -24h-197z" />
<glyph unicode="&#x201a;" horiz-adv-x="555" d="M74 -254q49 117 84 295q16 83 23.5 146t6.5 85v21h258q-2 -95 -53 -275q-24 -88 -54.5 -156t-48.5 -92l-18 -24h-198z" />
<glyph unicode="&#x201c;" horiz-adv-x="872" d="M102 1010q5 94 54 274q24 88 55 156t49 92l19 24h196q-47 -116 -82 -294q-16 -83 -23.5 -146t-7.5 -84v-22h-260zM465 1010q4 94 53 274q25 88 56 156t49 92l18 24h199q-49 -116 -84 -294q-16 -83 -23.5 -146t-7.5 -84v-22h-260z" />
<glyph unicode="&#x201d;" horiz-adv-x="872" d="M61 1010q49 119 82 295q16 83 24.5 145.5t8.5 83.5v22h258q-4 -94 -53 -274q-24 -88 -55 -156t-50 -92l-18 -24h-197zM424 1010q49 119 84 295q16 83 23.5 145.5t7.5 83.5v22h260q-5 -94 -56 -274q-15 -55 -33 -103.5t-33 -78t-27.5 -51t-19.5 -30.5l-7 -9h-199z" />
<glyph unicode="&#x201e;" horiz-adv-x="894" d="M61 -274q49 116 82 294q16 83 24.5 146t8.5 84v22h258q-4 -94 -53 -274q-24 -88 -55 -156t-50 -92l-18 -24h-197zM420 -274q49 116 82 294q16 83 24.5 146t8.5 84v22h258q-5 -94 -54 -274q-24 -88 -55 -156t-50 -92l-18 -24h-196z" />
<glyph unicode="&#x2022;" horiz-adv-x="1013" d="M330 426v375h354v-375h-354z" />
<glyph unicode="&#x2026;" horiz-adv-x="1517" d="M164 0v303h291v-303h-291zM612 0v303h291v-303h-291zM1061 0v303h291v-303h-291z" />
<glyph unicode="&#x202f;" horiz-adv-x="403" />
<glyph unicode="&#x2039;" horiz-adv-x="872" d="M162 522v51l239 353h312l-285 -381l285 -361h-312z" />
<glyph unicode="&#x203a;" horiz-adv-x="874" d="M160 184l282 361l-282 381h313l240 -353v-51l-240 -338h-313z" />
<glyph unicode="&#x205f;" horiz-adv-x="504" />
<glyph unicode="&#x20ac;" horiz-adv-x="1296" d="M29 471v162h141v153h-141v162h151q30 266 157.5 391t397.5 125q474 0 486 -434h-248q-3 94 -62.5 149.5t-162.5 55.5q-121 0 -186 -70t-89 -217h449v-162h-463v-153h463v-162h-447q25 -138 89.5 -203t183.5 -65q98 0 157.5 46t63.5 132h245q-18 -408 -479 -408 q-265 0 -392.5 120.5t-160.5 377.5h-153z" />
<glyph unicode="&#x2122;" horiz-adv-x="1636" d="M86 1352v137h545v-137h-195v-576h-155v576h-195zM696 774v715h224l167 -584l168 584h228l-2 -715h-144l13 567l-187 -567h-157l-181 578l15 -578h-144z" />
<glyph unicode="&#x25fc;" horiz-adv-x="1116" d="M0 0v1116h1116v-1116h-1116z" />
<glyph unicode="&#xfb03;" horiz-adv-x="1978" d="M37 856v211h151v98q0 63 10 117t36.5 106.5t68.5 89t110.5 59t157.5 22.5l160 -3v-229h-69q-105 0 -147 -49t-42 -156v-55h401v98q0 63 10 117t37 106.5t69 89t110.5 59t156.5 22.5l162 -3v-229h-71q-105 0 -146 -49t-41 -156v-55h244v-211h-244v-856h-287v856h-401v-856 h-285v856h-151zM1556 0v1112h287v-1112h-287zM1556 1286v264h289v-264h-289z" />
<glyph unicode="&#xfb04;" horiz-adv-x="1980" d="M37 856v211h151v98q0 63 10 117t36.5 106.5t68.5 89t110.5 59t157.5 22.5l160 -3v-229h-69q-105 0 -147 -49t-42 -156v-55h401v98q0 63 10 117t37 106.5t69 89t110.5 59t156.5 22.5l162 -3v-229h-71q-105 0 -146 -49t-41 -156v-55h248v-211h-248v-856h-287v856h-401v-856 h-285v856h-151zM1561 0v1546h284v-1546h-284z" />
</font>
</defs>
</svg>
